<svg width="48" height="48" viewBox="0 0 48 48" fill="none" xmlns="http://www.w3.org/2000/svg">
<path d="M24.0075 30.9704C24.0027 30.9704 24.0027 30.9704 23.9978 30.9704C23.7207 30.9704 23.4436 30.9509 23.1714 30.9218L25.6895 42.0023L26.9194 42.4299L24.0075 30.9704Z" fill="#B8D8D8"/>
<path d="M16.7836 23.9479C16.7836 23.8847 16.7788 23.8167 16.7788 23.7535C16.7788 23.5785 16.7885 23.4084 16.7982 23.2383L16.2197 23.4813L15.8892 24.6671L16.7836 23.9479Z" fill="#B8D8D8"/>
<path d="M16.8714 24.881C16.8422 24.6866 16.8179 24.4874 16.8033 24.2833L15.831 24.9345L15.6074 26.2515L16.8714 24.881Z" fill="#B8D8D8"/>
<path d="M17.0069 21.9893C17.0506 21.8046 17.1624 21.5373 17.2208 21.3575L17.143 21.3381C17.0409 21.5325 16.8853 21.8143 16.793 22.0185L17.0069 21.9893Z" fill="#B8D8D8"/>
<path d="M16.7986 22.9662C16.8181 22.7815 16.9202 22.4267 16.9591 22.2518L16.6722 22.2955C16.6722 22.2955 16.4 22.9419 16.3125 23.1946L16.7986 22.9662Z" fill="#B8D8D8"/>
<path d="M17.9452 27.6754C17.9452 27.6754 17.9695 27.7094 17.9209 27.6414L16.4771 33.3469C16.4771 33.3469 16.6861 34.0418 16.8854 34.4452L17.9452 27.6754Z" fill="#B8D8D8"/>
<path d="M18.7764 28.73C18.6938 28.6425 18.616 28.5551 18.5382 28.4676L17.9062 36.1073C17.9062 36.1073 18.3924 36.8557 18.7375 37.2494L18.7764 28.73Z" fill="#B8D8D8"/>
<path d="M16.9299 25.2211L15.5833 26.5382L15.4375 27.8357L17.0369 25.6537C16.998 25.5127 16.9591 25.3669 16.9299 25.2211Z" fill="#B8D8D8"/>
<path d="M17.1389 26.0036L15.5055 28.1176C15.5055 28.1176 15.4715 29.2014 15.5103 29.6145L17.2458 26.3146C17.2118 26.2126 17.1778 26.1105 17.1389 26.0036Z" fill="#B8D8D8"/>
<path d="M18.1787 28.0204L17.0752 34.6979C17.0752 34.6979 17.5224 35.6019 17.6877 35.8643L18.2759 28.1468C18.2419 28.1079 18.2127 28.0642 18.1787 28.0204Z" fill="#B8D8D8"/>
<path d="M31.9746 28.9342L39.1256 41.0109C39.777 40.6513 40.7152 40.0195 40.7152 40.0195L33.2726 28.1857C33.2726 28.1857 32.3732 28.7057 31.9746 28.9342Z" fill="#B8D8D8"/>
<path d="M39.1405 16.8816C39.1405 16.8816 39.0579 17.8924 39.0044 18.3444L47.7547 24.9781C47.7742 24.5699 47.7887 24.1617 47.7887 23.7535C47.7887 23.4521 47.7742 23.0245 47.7742 23.0245L39.1405 16.8816Z" fill="#B8D8D8"/>
<path d="M33.6031 3.59474L39.8255 6.00038C39.1595 5.40747 38.1241 4.62017 38.1241 4.62017L31.6294 2.31659C32.1204 2.6422 33.6031 3.59474 33.6031 3.59474Z" fill="#B8D8D8"/>
<path d="M31.7662 29.1382C31.7662 29.1382 30.93 29.4881 30.5654 29.6533L36.7295 42.1238C37.3323 41.8954 37.8963 41.6475 38.4213 41.3851L38.8199 41.0497L31.7662 29.1382Z" fill="#B8D8D8"/>
<path d="M36.7683 7.11809L43.4185 10.0194C43.0247 9.46541 42.4171 8.70241 42.4171 8.70241L35.3779 5.422C35.7474 5.85939 36.7683 7.11809 36.7683 7.11809Z" fill="#B8D8D8"/>
<path d="M27.3272 30.7274C27.3272 30.7274 26.6466 30.776 26.3354 30.81L30.5988 43.0909C31.0071 43.1152 31.2988 43.1444 31.6926 43.1347L31.7752 43.0764L27.3272 30.7274Z" fill="#B8D8D8"/>
<path d="M24.9848 30.8975C24.7612 30.9266 24.5327 30.9461 24.3042 30.9558L27.3182 42.5417C27.7654 42.6729 28.096 42.775 28.5287 42.8625L28.5675 42.8382L24.9848 30.8975Z" fill="#B8D8D8"/>
<path d="M30.3371 29.8284C30.3371 29.8284 29.4523 30.1005 29.0488 30.2269L34.5761 42.7654C35.1303 42.639 35.665 42.4883 36.1755 42.3183L36.4185 42.1287L30.3371 29.8284Z" fill="#B8D8D8"/>
<path d="M26.0882 30.8975L26.0153 30.8392C25.7576 30.8635 25.534 30.8732 25.2715 30.8781L28.9952 42.9208L30.1376 43.0618L26.0882 30.8975Z" fill="#B8D8D8"/>
<path d="M28.8008 30.3775C28.8008 30.3775 27.9695 30.533 27.5854 30.6108L32.0967 43.1152C32.7822 43.0764 33.4482 42.9937 34.0801 42.8722L34.2551 42.7508L28.8008 30.3775Z" fill="#B8D8D8"/>
<path d="M16.3071 33.0845L17.712 27.3012C17.6926 27.272 17.678 27.2429 17.6585 27.2089L15.9717 31.7723C15.9765 31.7723 16.1564 32.6471 16.3071 33.0845Z" fill="#B8D8D8"/>
<path d="M17.4883 26.8687C17.4543 26.8007 17.4251 26.7278 17.3911 26.6597L15.6216 29.8964L15.8355 31.4953L17.4883 26.8687Z" fill="#B8D8D8"/>
<path d="M45.3339 34.28L36.7974 24.6039L36.7002 24.638C36.4912 24.9344 36.2724 25.2211 36.0439 25.503L44.2304 36.2628C44.6533 35.5824 45.3339 34.28 45.3339 34.28Z" fill="#B8D8D8"/>
<path d="M42.66 38.4741L34.7506 26.9756L34.6194 26.9999C34.2499 27.3352 33.8659 27.656 33.4624 27.9524L40.9536 39.8591L42.66 38.4741Z" fill="#B8D8D8"/>
<path d="M46.982 29.9256L38.3094 21.6055L38.2608 21.6346C38.1053 22.0672 37.9302 22.4851 37.7261 22.8933L46.3549 31.8841C46.6125 31.1891 46.982 29.9256 46.982 29.9256Z" fill="#B8D8D8"/>
<path d="M44.065 36.5204L35.8931 25.78L35.7765 25.814C35.5042 26.1251 35.2174 26.4264 34.916 26.718L42.8496 38.2505C43.3115 37.6576 44.065 36.5204 44.065 36.5204Z" fill="#B8D8D8"/>
<path d="M46.2477 32.1756L37.6287 23.2043L37.5558 23.2383C37.3613 23.6077 37.1474 23.9673 36.9189 24.3172L36.9481 24.3464L45.4699 34.0029C45.7713 33.3663 46.2477 32.1756 46.2477 32.1756Z" fill="#B8D8D8"/>
<path d="M19.9188 38.4158L19.3597 29.2792C19.2576 29.1917 19.1604 29.1042 19.0632 29.0119L18.9903 37.4681C18.9854 37.4729 19.6222 38.1533 19.9188 38.4158Z" fill="#B8D8D8"/>
<path d="M47.4824 27.5442L38.7224 20.0843C38.7224 20.0843 38.5717 20.7695 38.4404 21.1826L47.0644 29.5999C47.2442 28.8758 47.4824 27.5442 47.4824 27.5442Z" fill="#B8D8D8"/>
<path d="M40.4241 6.55437L33.7642 3.862C34.1871 4.23621 35.2323 5.14015 35.2323 5.14015L41.9943 8.20187C41.4158 7.52635 40.4241 6.55437 40.4241 6.55437Z" fill="#B8D8D8"/>
<path d="M47.7358 25.3184L38.9563 18.7284C38.9563 18.7284 38.8737 19.2873 38.8008 19.6955L47.5365 27.2137C47.6289 26.5577 47.7358 25.3184 47.7358 25.3184Z" fill="#B8D8D8"/>
<path d="M29.792 1.18427L31.4448 2.06876L37.2686 4.01271C37.2686 4.01271 34.0651 2.17082 32.5532 1.70913C31.0754 1.25716 29.792 1.18427 29.792 1.18427Z" fill="#B8D8D8"/>
<path d="M47.594 20.6869L39.1743 15.4382C39.1743 15.4382 39.1743 16.0895 39.1597 16.4977L47.7641 22.6697C47.7301 21.931 47.594 20.6869 47.594 20.6869Z" fill="#B8D8D8"/>
<path d="M23.8759 41.1519L21.664 30.5816C21.4355 30.5039 21.2119 30.4164 20.9932 30.3143L22.8356 40.5444L23.8759 41.1519Z" fill="#B8D8D8"/>
<path d="M22.8749 30.8829C22.5687 30.8343 22.2673 30.7663 21.9756 30.6837L24.1972 41.3073C24.1972 41.3073 24.9604 41.6767 25.3639 41.8565L22.8749 30.8829Z" fill="#B8D8D8"/>
<path d="M21.1487 39.4071L20.0597 29.7991C19.9236 29.7067 19.7875 29.6144 19.6562 29.5172L20.191 38.6198C20.1959 38.6198 20.891 39.2029 21.1487 39.4071Z" fill="#B8D8D8"/>
<path d="M22.5392 40.3694L20.6822 30.1588C20.5752 30.1054 20.4732 30.0471 20.3662 29.9839L21.4406 39.5919C21.4406 39.5967 22.1406 40.1119 22.5392 40.3694Z" fill="#B8D8D8"/>
<path d="M47.2397 18.6555L39.0728 13.7275C39.1214 14.1455 39.1408 14.6363 39.1603 15.0737L47.5411 20.2932C47.4488 19.6712 47.2397 18.6555 47.2397 18.6555Z" fill="#B8D8D8"/>
<path d="M44.8769 12.3474L37.6968 8.79968C37.8669 9.15931 38.2072 9.99035 38.2072 9.99035L45.7276 14.0532C45.4311 13.3923 44.8769 12.3474 44.8769 12.3474Z" fill="#B8D8D8"/>
<path d="M45.912 14.4808L38.2847 10.3159C38.4256 10.7241 38.7027 11.6427 38.7027 11.6427L46.5245 16.0992C46.3155 15.4771 45.912 14.4808 45.912 14.4808Z" fill="#B8D8D8"/>
<path d="M43.7397 10.4812L36.8853 7.41461C37.1235 7.79368 37.5658 8.51294 37.5658 8.51294L44.6196 11.8954C44.2987 11.3414 43.7397 10.4812 43.7397 10.4812Z" fill="#B8D8D8"/>
<path d="M46.6657 16.5025L38.771 11.9828C38.8634 12.4008 38.9703 12.9354 39.0335 13.3776L47.1567 18.257C46.9963 17.596 46.6657 16.5025 46.6657 16.5025Z" fill="#B8D8D8"/>
<path d="M32.2718 1.45636C30.4634 0.950929 29.5397 1.05785 29.5397 1.05785L27.4883 0.270546C27.4883 0.270546 27.5515 0.265686 27.6681 0.265686C29.2529 0.50382 30.7988 0.90719 32.2718 1.45636Z" fill="#B8D8D8"/>
<path d="M30.2593 20.1766L30.2641 20.1815C30.4051 20.4245 30.5266 20.6723 30.6336 20.9202L39.0339 13.3776C38.9707 12.9014 38.8881 12.4397 38.7908 11.9926L38.7714 11.9828L30.2593 20.1766Z" fill="#7A9E9F"/>
<path d="M27.7604 29.9352C27.7069 29.9693 27.6486 30.0033 27.5903 30.0373C27.4396 30.1248 27.284 30.2025 27.1333 30.2754L27.5903 30.6108C27.5903 30.6108 28.4361 30.4844 28.8056 30.3775L27.7604 29.9352Z" fill="#7A9E9F"/>
<path d="M28.5281 29.3958C28.3726 29.5222 28.2121 29.6388 28.042 29.7506L29.0434 30.2317C29.0434 30.2317 29.9573 29.9839 30.3317 29.8332L28.5281 29.3958Z" fill="#7A9E9F"/>
<path d="M25.9521 30.7226C25.7673 30.7761 25.4562 30.8344 25.2715 30.8733C25.2715 30.8733 25.8646 30.917 26.0882 30.8927L25.9521 30.7226Z" fill="#7A9E9F"/>
<path d="M26.8312 30.4115C26.6611 30.4844 26.4909 30.5524 26.3208 30.6108L26.3354 30.81C26.3354 30.81 27.0597 30.776 27.3271 30.7274L26.8312 30.4115Z" fill="#7A9E9F"/>
<path d="M30.4193 27.0728C30.4193 27.0728 30.4388 27.0339 30.3999 27.1116L36.073 25.5225C36.073 25.5225 36.5446 24.9782 36.7974 24.6039L30.4193 27.0728Z" fill="#7A9E9F"/>
<path d="M30.9204 25.8238C30.8864 25.9356 30.8523 26.0523 30.8086 26.164L37.7262 22.8933C37.7262 22.8933 38.1394 22.0963 38.3096 21.6055L30.9204 25.8238Z" fill="#7A9E9F"/>
<path d="M28.7959 29.1723L30.5654 29.6534C30.5654 29.6534 31.3578 29.3667 31.7661 29.1382L29.1167 28.8661C29.0147 28.9681 28.9077 29.0751 28.7959 29.1723Z" fill="#7A9E9F"/>
<path d="M29.3696 28.5988L31.9753 28.9293C31.9753 28.9293 32.933 28.4238 33.2732 28.1808L29.5835 28.3461C29.5155 28.4336 29.4425 28.521 29.3696 28.5988Z" fill="#7A9E9F"/>
<path d="M30.5991 26.6985L36.9188 24.3172C36.9188 24.3172 37.4827 23.4813 37.6285 23.2043L30.6623 26.5479C30.6429 26.5965 30.6234 26.6451 30.5991 26.6985Z" fill="#7A9E9F"/>
<path d="M24.1581 14.1067L31.4451 2.06876C30.8083 1.68483 29.7923 1.18427 29.7923 1.18427L23.1323 13.5964L24.1581 14.1067Z" fill="#7A9E9F"/>
<path d="M10.3423 14.2039C10.3423 14.2039 11.2513 13.7616 11.6694 13.5818L13.2396 2.56445C12.875 2.74913 12.5153 2.93866 12.1604 3.14764C11.8979 3.29829 11.5382 3.52185 11.5382 3.52185L10.3423 14.2039Z" fill="#7A9E9F"/>
<path d="M1.69385 25.7169L0.721594 18.8888C0.536866 19.7636 0.371582 21.0514 0.371582 21.0514L1.59177 28.0594C1.63066 27.4762 1.69385 25.7169 1.69385 25.7169Z" fill="#7A9E9F"/>
<path d="M24.5854 14.3448L25.6792 15.0495L33.6031 3.59474C33.1073 3.18651 32.6114 2.82202 32.1204 2.4964L31.6295 2.31659L24.5854 14.3448Z" fill="#7A9E9F"/>
<path d="M3.12343 21.202L2.41855 13.7712C2.13173 14.3884 1.77686 15.2972 1.77686 15.2972L2.36993 23.2577C2.56438 22.7231 3.12343 21.202 3.12343 21.202Z" fill="#7A9E9F"/>
<path d="M28.29 17.4114C28.29 17.4114 28.7567 18.0189 28.7762 18.0189L37.5654 8.51294C37.3806 8.14359 37.1862 7.79368 36.9772 7.45835L36.8848 7.41461L28.29 17.4114Z" fill="#7A9E9F"/>
<path d="M29.7095 19.365C29.8456 19.5448 29.9768 19.7344 30.0984 19.9288L38.7029 11.6427C38.591 11.1907 38.4646 10.7582 38.3237 10.3402L38.2848 10.3159L29.7095 19.365Z" fill="#7A9E9F"/>
<path d="M26.0537 15.3216L26.9433 16.0506L35.2318 5.14015C34.8478 4.7222 34.4492 4.33341 34.0457 3.97864L33.7637 3.862L26.0537 15.3216Z" fill="#7A9E9F"/>
<path d="M28.9854 18.291L29.5493 19.1269L38.2072 9.99035C38.0565 9.58212 37.8912 9.18847 37.7114 8.8094L37.6968 8.79968L28.9854 18.291Z" fill="#7A9E9F"/>
<path d="M27.2549 16.3373L28.0278 17.1197L36.7636 7.11323C36.3892 6.53491 35.9858 6.00518 35.5628 5.51433L35.3732 5.422L27.2549 16.3373Z" fill="#7A9E9F"/>
<path d="M35.893 25.78L30.2053 27.4567C30.1859 27.4858 30.1713 27.515 30.1519 27.549L34.9159 26.718C34.9208 26.718 35.5916 26.1299 35.893 25.78Z" fill="#7A9E9F"/>
<path d="M29.9481 27.8698C29.9044 27.933 29.8606 27.9962 29.812 28.0545L33.4677 27.9524C33.4677 27.9524 34.4448 27.2526 34.7511 26.9756L29.9481 27.8698Z" fill="#7A9E9F"/>
<path d="M22.5151 0.0373239L18.0962 12.3328L19.3455 12.4689L24.7853 0.00816459C23.9832 -0.0209947 22.5151 0.0373239 22.5151 0.0373239Z" fill="#7A9E9F"/>
<path d="M27.488 0.265686L21.5913 13.0034L22.6608 13.3922L29.5347 1.05785C28.3388 0.50868 27.488 0.265686 27.488 0.265686Z" fill="#7A9E9F"/>
<path d="M17.916 0.775951L14.8242 12.5369C14.8242 12.5369 15.8451 12.3716 16.3021 12.3425L19.9286 0.338562C19.1994 0.464919 17.916 0.775951 17.916 0.775951Z" fill="#7A9E9F"/>
<path d="M25.0911 0.0178223L19.8555 12.5563L21.1097 12.8576L27.1912 0.207357C26.4522 0.1053 25.0911 0.0178223 25.0911 0.0178223Z" fill="#7A9E9F"/>
<path d="M20.2346 0.290037L16.7588 12.3134L17.6047 12.3085L22.2083 0.0567627C21.5034 0.110221 20.2346 0.290037 20.2346 0.290037Z" fill="#7A9E9F"/>
<path d="M38.7227 20.0843L31.1051 25.0462C31.0808 25.1774 31.0516 25.3087 31.0225 25.435L38.4359 21.1778C38.4359 21.1826 38.6401 20.4731 38.7227 20.0843Z" fill="#7A9E9F"/>
<path d="M15.6017 1.52443L13.3169 12.9451L14.4058 12.6341L17.5948 0.868347C16.8754 1.0676 15.6017 1.52443 15.6017 1.52443Z" fill="#7A9E9F"/>
<path d="M0.901855 18.0918L1.83522 25.4399C1.95189 24.8859 2.19496 23.5251 2.19496 23.5251L1.54841 15.9097C1.25673 16.7504 0.901855 18.0918 0.901855 18.0918Z" fill="#7A9E9F"/>
<path d="M13.546 2.4138L12.0244 13.4311C12.0244 13.4311 12.5446 13.2124 12.9383 13.0764L15.2863 1.64594C14.669 1.88893 13.546 2.4138 13.546 2.4138Z" fill="#7A9E9F"/>
<path d="M1.54817 30.222C1.48983 29.5853 1.47039 28.3509 1.47039 28.3509L0.269647 22.1011C-0.167868 25.4399 1.54817 30.222 1.54817 30.222Z" fill="#7A9E9F"/>
<path d="M9.5983 4.84369L9.08301 14.9085L10.0018 14.3836L11.2366 3.70648C10.6095 4.10499 9.5983 4.84369 9.5983 4.84369Z" fill="#7A9E9F"/>
<path d="M39.1741 15.4382L31.085 22.3976C31.1336 22.6357 31.1627 22.8738 31.187 23.112L39.1596 16.4977C39.1596 16.4977 39.179 15.793 39.1741 15.4382Z" fill="#7A9E9F"/>
<path d="M30.7451 21.202C30.8569 21.4936 30.9444 21.7852 31.0174 22.0817L39.16 15.0737L39.1649 15.0786C39.1503 14.612 39.1163 14.1649 39.0676 13.7275L30.7451 21.202Z" fill="#7A9E9F"/>
<path d="M38.9557 18.7284L31.2068 24.1763C31.1971 24.3416 31.1825 24.5068 31.1631 24.6672L38.7953 19.6955C38.7953 19.6955 38.9071 19.054 38.9557 18.7284Z" fill="#7A9E9F"/>
<path d="M39.1412 16.8816L31.2124 23.4619C31.2173 23.5834 31.2173 23.7 31.2173 23.8215L39.0002 18.3444C39.0682 17.8438 39.112 17.3579 39.1412 16.8816Z" fill="#7A9E9F"/>
<path d="M8.01405 6.16076L7.65918 15.8708C7.99461 15.6229 8.40296 15.3459 8.77728 15.1078L9.28771 5.08673C8.79186 5.47552 8.01405 6.16076 8.01405 6.16076Z" fill="#7A9E9F"/>
<path d="M3.71631 11.3511L4.11007 19.5303C4.33855 19.2047 4.87816 18.5048 4.87816 18.5048L4.77121 9.76678C4.34828 10.35 3.71631 11.3511 3.71631 11.3511Z" fill="#7A9E9F"/>
<path d="M5.04834 9.38767L5.11154 18.2229C5.39835 17.8973 6.0449 17.2364 6.0449 17.2364L6.14699 8.05121C5.71434 8.54206 5.04834 9.38767 5.04834 9.38767Z" fill="#7A9E9F"/>
<path d="M2.66113 13.2611L3.32227 20.9445C3.53616 20.546 3.92507 19.8025 3.92507 19.8025L3.45352 11.7934C3.12782 12.3523 2.66113 13.2611 2.66113 13.2611Z" fill="#7A9E9F"/>
<path d="M6.42864 7.73047L6.30225 16.9885C6.61823 16.7018 7.37659 16.0797 7.37659 16.0797L7.71202 6.43774C7.21131 6.89943 6.42864 7.73047 6.42864 7.73047Z" fill="#7A9E9F"/>
<path d="M1.7329 32.3991C1.7329 32.3991 1.72804 32.3991 1.7329 32.3943C0.901621 30.2656 0.371741 27.9912 0.187012 25.6147C1.11552 30.4503 1.54817 30.5135 1.56762 30.5135L1.93221 32.681C1.86902 32.6081 1.80096 32.5158 1.7329 32.3991Z" fill="#7A9E9F"/>
<path d="M17.6825 20.1914C17.6825 20.1914 17.6825 20.1865 17.6874 20.1865C17.8235 19.9435 17.9791 19.7151 18.1395 19.4915L7.37659 16.0799C6.99741 16.3763 6.63767 16.6825 6.30225 16.9887V17.0081L17.6825 20.1914Z" fill="#7A9E9F"/>
<path d="M27.3618 17.3969C27.4202 17.426 27.4785 17.4552 27.5368 17.4892C27.6875 17.5767 27.8334 17.669 27.9744 17.7613L28.0278 17.1198C28.0278 17.1198 27.5368 16.5998 27.2549 16.3374L27.3618 17.3969Z" fill="#7A9E9F"/>
<path d="M26.5107 17.0032C26.6954 17.0761 26.8801 17.1538 27.0649 17.2413L26.9482 16.0506C26.9482 16.0506 26.3794 15.5646 26.0586 15.3217L26.5107 17.0032Z" fill="#7A9E9F"/>
<path d="M28.9023 18.4951C29.0433 18.6263 29.4176 18.986 29.5489 19.1269C29.5489 19.1269 29.1162 18.4708 28.985 18.291L28.9023 18.4951Z" fill="#7A9E9F"/>
<path d="M28.2466 17.9508C28.3973 18.0577 28.5383 18.1744 28.6744 18.291L28.7765 18.0189C28.7765 18.0189 28.4653 17.6155 28.2903 17.4114L28.2466 17.9508Z" fill="#7A9E9F"/>
<path d="M23.5501 16.5512C23.5501 16.5512 23.5063 16.5512 23.5938 16.5512L19.3499 12.4689L18.1006 12.3328L23.5501 16.5512Z" fill="#7A9E9F"/>
<path d="M22.2231 16.7554C22.3398 16.7262 22.4564 16.7019 22.5731 16.6776L16.3021 12.3426C16.3021 12.3426 15.3347 12.4398 14.8242 12.537L22.2231 16.7554Z" fill="#7A9E9F"/>
<path d="M26.1853 16.8914L25.6846 15.0544C25.6846 15.0544 24.9943 14.5829 24.5908 14.3497L25.7575 16.7699C25.8985 16.8039 26.0395 16.8428 26.1853 16.8914Z" fill="#7A9E9F"/>
<path d="M25.4025 16.6874L24.1581 14.1068C24.1581 14.1068 23.5115 13.7666 23.1323 13.5965L25.0768 16.6291C25.1838 16.6436 25.2907 16.6631 25.4025 16.6874Z" fill="#7A9E9F"/>
<path d="M23.1324 16.5901L17.6003 12.3134C17.6003 12.3134 17.0655 12.3086 16.7544 12.3183L22.9671 16.6144C23.0255 16.5998 23.0789 16.595 23.1324 16.5901Z" fill="#7A9E9F"/>
<path d="M15.5094 28.1177L1.46999 28.3462C1.46027 29.0897 1.54777 30.2172 1.54777 30.2172L15.5142 29.6146L15.5774 29.4931C15.5337 29.0363 15.5094 28.5794 15.5094 28.1177Z" fill="#7A9E9F"/>
<path d="M22.5388 40.3695L22.534 40.3501C22.1742 40.1168 21.8096 39.869 21.4402 39.5968L11.1294 43.7812C11.4745 43.9999 11.8197 44.2137 12.1794 44.4178C12.4419 44.5685 12.8211 44.7629 12.8211 44.7629L22.5388 40.3695Z" fill="#7A9E9F"/>
<path d="M36.7295 42.1239L31.5522 46.2985C32.3981 46.0118 33.594 45.5015 33.594 45.5015L38.4164 41.3852C37.8914 41.6476 36.7295 42.1239 36.7295 42.1239Z" fill="#7A9E9F"/>
<path d="M15.4368 27.8359L15.5146 27.7387C15.5243 27.3353 15.5438 26.9368 15.5875 26.5383L1.69885 25.717C1.59676 26.3488 1.53356 26.966 1.50439 27.5492L1.59676 28.0643L15.4368 27.8359Z" fill="#7A9E9F"/>
<path d="M32.0963 43.1153L26.2725 47.426C26.9482 47.358 27.9156 47.2073 27.9156 47.2073L34.0845 42.8723C33.5255 42.9744 32.0963 43.1153 32.0963 43.1153Z" fill="#7A9E9F"/>
<path d="M16.2537 23.1946H16.3121L16.6718 22.2956L3.92551 19.8073C3.70189 20.1524 3.49772 20.4974 3.31299 20.8473L3.32271 20.9494L16.2537 23.1946Z" fill="#7A9E9F"/>
<path d="M17.2645 21.071C17.3472 20.862 17.4444 20.653 17.5514 20.4489L6.04469 17.2317C5.70927 17.5524 5.40301 17.8829 5.11133 18.2182V18.2668L17.2645 21.071Z" fill="#7A9E9F"/>
<path d="M15.5388 26.2515H15.6068L15.8304 24.9345L2.19939 23.5251C2.0341 24.0695 1.90285 24.6089 1.7959 25.1338L1.83965 25.4351L15.5388 26.2515Z" fill="#7A9E9F"/>
<path d="M16.793 22.0186C16.793 22.0186 17.0166 21.5666 17.143 21.3382L4.87795 18.5098C4.60085 18.8451 4.3432 19.1901 4.10986 19.5352V19.5546L16.793 22.0186Z" fill="#7A9E9F"/>
<path d="M15.8261 24.6478L15.8893 24.6672L16.2198 23.4814L3.12353 21.207C2.81727 21.8193 2.55962 22.4414 2.35059 23.0537L2.37003 23.2627L15.8261 24.6478Z" fill="#7A9E9F"/>
<path d="M19.8555 12.5564L23.9924 16.5415C24.0265 16.5415 24.0605 16.5415 24.0945 16.5415L21.1048 12.8577L19.8555 12.5564Z" fill="#7A9E9F"/>
<path d="M24.4789 16.5561C24.5567 16.561 24.6296 16.5707 24.7074 16.5756L22.6608 13.3972C22.6608 13.3972 21.9899 13.1348 21.5913 13.0084L24.4789 16.5561Z" fill="#7A9E9F"/>
<path d="M4.24577 37.0696L16.8802 34.4453L16.8997 34.3433C16.7441 34.0176 16.6032 33.6823 16.4768 33.347L3.06934 35.1306C3.45338 35.8352 4.24577 37.0696 4.24577 37.0696Z" fill="#7A9E9F"/>
<path d="M1.92761 32.6715L15.8357 31.5002L15.8795 31.3739C15.7677 30.8879 15.685 30.3971 15.6218 29.8965L1.56787 30.504C1.69913 31.8161 1.92761 32.6715 1.92761 32.6715Z" fill="#7A9E9F"/>
<path d="M7.21599 40.6611L18.7372 37.2495V37.196C18.4407 36.851 18.1636 36.4865 17.906 36.1074L5.8208 39.1497C6.29721 39.7134 7.21599 40.6611 7.21599 40.6611Z" fill="#7A9E9F"/>
<path d="M2.92373 34.8633L16.302 33.0846L16.3312 32.968C16.195 32.5743 16.0735 32.1758 15.9714 31.7725L2.01953 32.9534C2.31121 33.6435 2.92373 34.8633 2.92373 34.8633Z" fill="#7A9E9F"/>
<path d="M5.62115 38.9066L17.6869 35.8643L17.6966 35.7817C17.473 35.4318 17.2639 35.0673 17.0743 34.6931L17.0354 34.7028L4.42041 37.3223C4.8239 37.9055 5.62115 38.9066 5.62115 38.9066Z" fill="#7A9E9F"/>
<path d="M13.3169 12.9452L21.4547 16.9935C21.5811 16.9498 21.7075 16.906 21.8339 16.8672L14.4058 12.6342L13.3169 12.9452Z" fill="#7A9E9F"/>
<path d="M9.03404 42.2745L19.9185 38.4158V38.3818C19.5879 38.095 19.2816 37.7889 18.99 37.473L18.9219 37.4924L7.45898 40.8943C7.99373 41.4095 9.03404 42.2745 9.03404 42.2745Z" fill="#7A9E9F"/>
<path d="M30.7695 46.5415L36.1753 42.3183C35.6405 42.503 34.5759 42.7654 34.5759 42.7654L28.5625 47.0907C29.4375 46.9157 30.7695 46.5415 30.7695 46.5415Z" fill="#7A9E9F"/>
<path d="M10.8427 43.5917L21.1487 39.4073L21.1438 39.383C20.8278 39.1449 20.507 38.8873 20.191 38.6249L9.29199 42.4836C9.82187 42.8919 10.8427 43.5917 10.8427 43.5917Z" fill="#7A9E9F"/>
<path d="M39.1306 41.011L34.5513 45.0593L36.1652 44.1116C37.366 43.407 38.4549 42.5225 39.3882 41.4873L40.7202 40.0148L39.1306 41.011Z" fill="#7A9E9F"/>
<path d="M14.9407 45.7689L23.8758 41.152V41.1423L22.8403 40.5445L13.1323 44.933C13.7886 45.2732 14.9407 45.7689 14.9407 45.7689Z" fill="#7A9E9F"/>
<path d="M9.08301 14.9086L19.1848 18.3494C19.3646 18.189 19.5542 18.0384 19.7487 17.8974L9.99693 14.3837L9.08301 14.9086Z" fill="#7A9E9F"/>
<path d="M18.3248 19.2485C18.5193 19.0055 18.7283 18.7819 18.9471 18.5681L8.77728 15.103V15.0933C8.38351 15.3411 8.01405 15.5987 7.65918 15.8611L18.3248 19.2485Z" fill="#7A9E9F"/>
<path d="M12.0288 13.4312L20.6527 17.3434C20.7986 17.2657 20.9493 17.1976 21.1 17.1296L12.9427 13.0716C12.9427 13.0765 12.3351 13.3049 12.0288 13.4312Z" fill="#7A9E9F"/>
<path d="M10.3423 14.2039L20.0357 17.703C20.1378 17.6398 20.2399 17.5767 20.3419 17.5135L11.6743 13.5818C11.2076 13.7811 10.7652 13.9901 10.3423 14.2039Z" fill="#7A9E9F"/>
<path d="M16.8803 46.4638L25.3632 41.8566L24.1965 41.3074L15.3101 45.9097C15.8934 46.143 16.8803 46.4638 16.8803 46.4638Z" fill="#7A9E9F"/>
<path d="M23.5311 47.5378L30.1376 43.057L28.9952 42.9161L21.6304 47.4309C22.3498 47.4989 23.5311 47.5378 23.5311 47.5378Z" fill="#7A9E9F"/>
<path d="M21.1633 47.3823L28.5622 42.8431C28.1393 42.7605 27.3128 42.5467 27.3128 42.5467L19.4521 47.115C20.0987 47.2365 21.1633 47.3823 21.1633 47.3823Z" fill="#7A9E9F"/>
<path d="M25.7138 47.4746L31.7758 43.0716C31.3286 43.091 30.5994 43.091 30.5994 43.091L24.0464 47.5427C24.6929 47.5378 25.7138 47.4746 25.7138 47.4746Z" fill="#7A9E9F"/>
<path d="M19.0342 47.0324L26.924 42.4301L25.6893 41.9927V42.0024L17.2646 46.5853C17.9209 46.7797 19.0342 47.0324 19.0342 47.0324Z" fill="#7A9E9F"/>
<path d="M42.6696 38.5179C41.7168 39.7182 40.6521 40.8263 39.4903 41.8177C39.1354 42.1239 38.9653 42.2454 39.1792 42.0073C40.691 40.316 40.9778 39.8397 40.9778 39.8397L42.6598 38.4741C42.6598 38.479 42.6647 38.4936 42.6696 38.5179Z" fill="#7A9E9F"/>
</svg>
